PathFileType	4	(X/Y/Z)	c:/Users/goper/Files/vsCode/490R/osim_files/C11/C11_Static_03.trc
DataRate	CameraRate	NumFrames	NumMarkers	Units                	OrigDataRate	OrigDataStartFrame	OrigNumFrames
120.00	120.00	4	36	mm	120.0	336	536
                Frame#	Time	LPSIS			LASIS			LTH1			LTH2			LTH3			LTH4			LLFE			LMFE			LSH1			LSH2			LSH3			LSH4			LLMAL			LMMAL			LCAL			LMTP5			LTOE			LMTP1			RPSIS			RASIS			RTH1			RTH2			RTH3			RTH4			RLFE			RMFE			RSH1			RSH2			RSH3			RSH4			RLMAL			RMMAL			RCAL			RMTP1			RTOE			RMTP5		
		X1	Y1	Z1	X2	Y2	Z2	X3	Y3	Z3	X4	Y4	Z4	X5	Y5	Z5	X6	Y6	Z6	X7	Y7	Z7	X8	Y8	Z8	X9	Y9	Z9	X10	Y10	Z10	X11	Y11	Z11	X12	Y12	Z12	X13	Y13	Z13	X14	Y14	Z14	X15	Y15	Z15	X16	Y16	Z16	X17	Y17	Z17	X18	Y18	Z18	X19	Y19	Z19	X20	Y20	Z20	X21	Y21	Z21	X22	Y22	Z22	X23	Y23	Z23	X24	Y24	Z24	X25	Y25	Z25	X26	Y26	Z26	X27	Y27	Z27	X28	Y28	Z28	X29	Y29	Z29	X30	Y30	Z30	X31	Y31	Z31	X32	Y32	Z32	X33	Y33	Z33	X34	Y34	Z34	X35	Y35	Z35	X36	Y36	Z36

336	2.79167	-364.03809	1018.21588	437.01001	-185.32350	1005.86871	375.43716	-322.19797	637.05249	295.67014	-321.57858	590.45551	290.06943	-263.07455	632.79785	282.47968	-270.72852	586.91608	282.80444	-304.91605	515.51990	278.27631	-287.70941	501.83673	386.80698	-364.99948	413.75754	265.88470	-365.02356	368.82468	261.63599	-303.89236	409.03714	253.92291	-312.58423	364.83203	252.16068	-342.69931	96.68428	290.35162	-305.71432	110.70071	381.16522	-396.93710	59.82395	349.11008	-234.44550	40.10954	247.39598	-156.79576	57.40245	309.79385	-192.41724	45.34946	359.53470	-363.86407	1031.87122	520.81189	-207.04907	998.06750	608.12939	-310.53577	652.68628	671.02960	-308.82089	608.68579	670.30090	-248.07175	647.21875	664.68250	-256.53882	605.01385	665.64795	-291.57489	519.07294	660.88391	-314.50916	490.84540	550.23895	-362.94370	415.12885	686.15179	-358.27118	369.16037	688.91064	-300.83243	413.16348	682.59229	-305.36215	366.32727	688.44397	-338.86392	98.70650	666.81561	-310.70752	105.91334	572.10022	-399.74536	60.57887	614.87885	-184.01457	49.23559	597.81110	-180.94772	62.08604	647.95410	-222.80162	39.17421	708.24585
337	2.80000	-365.06897	1018.39240	436.80463	-185.54907	1005.75012	375.10062	-322.21335	637.06848	295.45715	-321.63324	590.45355	289.91449	-263.11661	632.79749	282.31326	-270.74854	586.90155	282.66260	-304.97144	515.51111	278.14633	-287.79825	501.81900	386.67053	-365.03024	413.75604	265.69717	-365.04535	368.80060	261.52402	-303.94165	408.95584	253.80348	-312.62152	364.72195	252.02910	-342.70477	96.66586	290.31342	-305.74393	110.68925	381.14514	-396.91006	59.77101	349.09409	-234.46519	40.07673	247.38368	-156.79019	57.38454	309.80096	-192.42625	45.32230	359.53650	-363.97458	1031.73035	520.70514	-207.01399	998.04547	607.88684	-310.32410	652.60046	670.95819	-308.60971	608.62524	670.20056	-247.88521	647.17078	664.56012	-256.31161	604.96497	665.50189	-291.37024	519.03717	660.80811	-314.43588	490.67606	550.29755	-362.80316	415.07867	686.13928	-358.08179	369.07971	688.89441	-300.70200	413.10385	682.54279	-305.21802	366.25595	688.39008	-338.80298	98.67283	666.82477	-310.72208	105.88893	572.09552	-399.75159	60.53359	614.88440	-184.03984	49.19542	597.82275	-180.97211	62.05997	647.96295	-222.80341	39.15961	708.25146
338	2.80833	-365.23886	1018.18463	436.71255	-185.79164	1005.64636	374.70996	-322.28052	637.04382	295.25616	-321.73804	590.44733	289.73196	-263.18900	632.78912	282.15491	-270.78888	586.92615	282.50504	-305.09448	515.44983	278.00247	-287.87057	501.78320	386.53171	-365.10004	413.62006	265.53671	-365.08008	368.72128	261.39850	-304.00473	408.89993	253.67235	-312.68832	364.64832	251.89944	-342.70969	96.60876	290.28348	-305.77170	110.64870	381.13770	-396.88083	59.70390	349.07086	-234.45656	40.00964	247.38570	-156.78133	57.36107	309.78864	-192.44423	45.29370	359.51880	-364.10684	1031.56030	520.62213	-206.95486	998.02405	607.64557	-310.08997	652.51788	670.88080	-308.43164	608.55786	670.12939	-247.70030	647.11121	664.44135	-256.12335	604.89838	665.35608	-291.20233	518.96942	660.72192	-314.37607	490.62088	550.22809	-362.67654	415.02866	686.14246	-357.93588	368.98187	688.89478	-300.54526	413.02634	682.52277	-305.11990	366.17285	688.34723	-338.84525	98.57597	666.85919	-310.74496	105.85478	572.09656	-399.74069	60.42335	614.91357	-184.02858	49.17749	597.82446	-180.94528	62.03534	647.96417	-222.82133	39.11032	708.26599
339	2.81667	-365.48621	1017.97968	436.64029	-185.97482	1005.58539	374.34686	-322.78781	637.01801	294.97348	-321.83679	590.45886	289.53937	-263.25092	632.80151	281.99435	-270.87646	586.94385	282.30362	-305.18179	515.41510	277.87289	-288.04089	501.80673	386.38165	-364.60120	413.56665	265.10339	-365.16949	368.66409	261.27197	-304.07742	408.88620	253.52499	-312.78275	364.61499	251.76755	-342.72833	96.55594	290.28940	-305.84488	110.64471	381.11136	-396.94046	59.67980	349.06247	-234.49326	39.99380	247.36415	-156.80173	57.36769	309.77185	-192.47458	45.29259	359.50208	-364.15027	1031.37585	520.53943	-206.95393	998.02795	607.38660	-309.92740	652.51440	670.79382	-308.32434	608.53448	670.03497	-247.54033	647.14722	664.26605	-255.96460	604.89850	665.20166	-291.06818	518.97742	660.64441	-314.32187	490.56076	550.18372	-362.60947	415.02863	686.12946	-357.90329	369.01224	688.88892	-300.45444	413.00009	682.44452	-305.08310	366.16464	688.29974	-338.99280	98.62212	666.85840	-310.77042	105.82655	572.09790	-399.80283	60.38721	614.92151	-184.03256	49.18953	597.80450	-180.98668	62.04192	647.94513	-222.83980	39.08972	708.26508
